Coordinates
version=1
nRows=21
nColumns=33
inDegrees=yes

Units are S.I. units (second, meters, Newtons, ...)
Angles are in degrees.

endheader
time	ground_thorax_rot_x	ground_thorax_rot_y	ground_thorax_rot_z	ground_thorax_tx	ground_thorax_ty	ground_thorax_tz	clav_prot_r	clav_elev_r	scapula_abduction_r	scapula_elevation_r	scapula_upward_rot_r	scapula_winging_r	shoulder_elv_r	plane_of_elev_r	axial_rot_r	elbow_flexion_r	pro_sup_r	wrist_flex_r	wrist_dev_r	clav_prot_l	clav_elev_l	scapula_abduction_l	scapula_elevation_l	scapula_upward_rot_l	scapula_winging_l	shoulder_elv_l	plane_of_elev_l	axial_rot_l	elbow_flexion_l	pro_sup_l	wrist_flex_l	wrist_dev_l
     10.25000000	     32.07705071	     24.96558588	     32.74248619	   -103.18023458	    852.36410207	    -38.09248989	     12.23618565	     33.56240590	     25.81750128	     45.00000000	    -45.00000000	   1710.53437020	    433.71618603	     22.21667662	   -165.84128452	   2517.93398959	    159.16525454	     17.02617327	     13.65331403	     -5.67266576	    -45.00000000	    -40.00299431	     45.00000000	    -45.00000000	   4066.11565204	  -4601.33898388	     25.60116065	     27.48360947	   2871.10910134	   -320.77318639	     13.85953406	    -22.30038688
     10.26000000	     31.85579528	     25.19659115	     32.98518090	   -102.83931405	    852.05215115	    -38.01665453	     11.89884228	     33.65456842	     25.53273174	     45.00000000	    -45.00000000	   1710.64914619	    433.73271629	     22.29852735	   -165.94146196	   2517.90965394	    158.23793314	     16.82574048	     13.79098875	     -5.72057456	    -45.00000000	    -40.47923609	     45.00000000	    -45.00000000	   4066.24008630	  -4601.43655201	     25.62196130	     27.69434339	   2871.10979643	   -320.38755863	     13.87549369	    -22.75325642
     10.27000000	     32.01970838	     25.06425530	     32.93952337	   -102.40536815	    851.75626650	    -37.95670631	     12.11008271	     33.47984151	     25.94575942	     45.00000000	    -45.00000000	   1710.63515798	    433.59432357	     22.22531450	   -166.11163361	   2517.83591623	    157.41409835	     16.72045233	     13.83753240	     -5.46043670	    -45.00000000	    -39.99014999	     45.00000000	    -45.00000000	   4066.05451955	  -4601.36060550	     25.70585983	     27.80285015	   2871.29043705	   -319.98311693	     13.71140856	    -22.38345479
     10.28000000	     31.71393431	     25.37733946	     33.27388170	   -101.87405361	    851.47350678	    -37.91340047	     12.10289877	     33.75931313	     25.55877729	     45.00000000	    -45.00000000	   1710.71788270	    433.64108928	     22.37045042	   -166.18900690	   2517.78862477	    156.70788204	     16.52130617	     14.01367155	     -5.88470570	    -45.00000000	    -40.60150797	     45.00000000	    -45.00000000	   4066.17976539	  -4601.43781605	     25.67115266	     28.16088239	   2871.25578432	   -319.73643650	     13.87329516	    -23.03661835
     10.29000000	     31.90669546	     25.25763364	     33.22019100	   -101.24035212	    851.19761930	    -37.88688093	     12.13661023	     33.64162419	     25.88038432	     45.00000000	    -45.00000000	   1710.67508638	    433.58885349	     22.37962863	   -166.44514329	   2517.62139143	    155.91653734	     16.44758300	     14.06695169	     -5.65928430	    -45.00000000	    -40.21077692	     45.00000000	    -45.00000000	   4066.02614796	  -4601.45126152	     25.74689406	     28.39271732	   2871.48232697	   -319.39768020	     13.70532938	    -22.75029322
     10.30000000	     31.77882089	     25.39937211	     33.46413920	   -100.50856405	    850.92504162	    -37.87769203	     12.16385340	     33.55552080	     25.89195768	     45.00000000	    -45.00000000	   1710.77131484	    433.53639444	     22.36891953	   -166.61310645	   2517.62508445	    155.34378746	     16.28038212	     14.18186746	     -5.61435054	    -45.00000000	    -40.25734672	     45.00000000	    -45.00000000	   4066.02995390	  -4601.42138890	     25.84735599	     28.62317545	   2871.44726622	   -319.15110216	     13.77448799	    -22.88571325
     10.31000000	     31.71085106	     25.46934906	     33.64389972	    -99.67669481	    850.64854617	    -37.88551452	     12.18801286	     33.65021370	     26.11079471	     45.00000000	    -45.00000000	   1710.78756963	    433.40615249	     22.32212705	   -166.89046811	   2517.60970318	    154.83224797	     16.20033233	     14.18832635	     -5.61544050	    -45.00000000	    -40.30973948	     45.00000000	    -45.00000000	   4065.92577374	  -4601.42240609	     25.82272092	     28.89655224	   2871.56653491	   -318.94442856	     13.73140204	    -22.79299648
     10.32000000	     31.63815116	     25.55688192	     33.87778866	    -98.74922442	    850.36342188	    -37.90992308	     12.26876620	     33.53097260	     26.08842159	     45.00000000	    -45.00000000	   1710.84166285	    433.46541962	     22.42842435	   -167.13091546	   2517.48914151	    154.41840363	     16.06446769	     14.36488658	     -5.62583015	    -45.00000000	    -40.25419135	     45.00000000	    -45.00000000	   4065.96118260	  -4601.39277935	     25.96033232	     29.21846150	   2871.56687391	   -318.77791011	     13.84787159	    -22.93042522
     10.33000000	     31.63153420	     25.56491164	     33.94593128	    -97.72862584	    850.06501562	    -37.94973879	     12.26001692	     33.69623631	     26.28589653	     45.00000000	    -45.00000000	   1710.90471567	    433.29852500	     22.42263755	   -167.44306148	   2517.47155280	    154.00127879	     16.02657465	     14.32230138	     -5.61156238	    -45.00000000	    -40.27893930	     45.00000000	    -45.00000000	   4065.76940621	  -4601.44089926	     25.92599737	     29.47559750	   2871.68502140	   -318.61531046	     13.76623849	    -22.80849466
     10.34000000	     31.43761491	     25.75137740	     34.37347456	    -96.61873985	    849.74976483	    -38.00303256	     12.38464269	     33.49672950	     26.30786095	     45.00000000	    -45.00000000	   1710.95519422	    433.33705002	     22.47694256	   -167.70346056	   2517.46226568	    153.69125701	     15.81915676	     14.55313686	     -5.67656039	    -45.00000000	    -40.27346808	     45.00000000	    -45.00000000	   4065.83927333	  -4601.35657439	     26.06476024	     29.82214090	   2871.63756804	   -318.46999095	     13.97960980	    -22.82668328
     10.35000000	     31.59598469	     25.63913313	     34.24946901	    -95.42445491	    849.41524012	    -38.06683672	     12.33832187	     33.78340867	     26.57854144	     45.00000000	    -45.00000000	   1711.03596901	    433.20054909	     22.46812051	   -168.07232938	   2517.34191539	    153.34179148	     15.91813795	     14.37928356	     -5.61840674	    -45.00000000	    -40.18343418	     45.00000000	    -45.00000000	   4065.54215229	  -4601.49042878	     26.01909395	     30.07051650	   2871.81659536	   -318.40467632	     13.81152902	    -22.79458339
     10.36000000	     31.48364040	     25.81577474	     34.55442977	    -94.15098225	    849.05907309	    -38.13737934	     12.45384921	     33.57364554	     26.46379886	     45.00000000	    -45.00000000	   1711.06439868	    433.24994778	     22.65831508	   -168.31304404	   2517.31346776	    153.10438122	     15.66961464	     14.70497072	     -5.77016722	    -45.00000000	    -40.18775490	     45.00000000	    -45.00000000	   4065.57718085	  -4601.52287363	     26.19904510	     30.42851944	   2871.78543660	   -318.24548582	     14.05999227	    -22.83231847
     10.37000000	     31.37656641	     25.91932540	     34.81977157	    -92.80191025	    848.67822639	    -38.21084880	     12.37834891	     33.64663655	     26.46715574	     45.00000000	    -45.00000000	   1711.26327282	    433.25598289	     22.66876710	   -168.79266999	   2517.30220314	    152.82746529	     15.61643953	     14.63769041	     -5.69528529	    -45.00000000	    -40.13557659	     45.00000000	    -45.00000000	   4065.33742147	  -4601.41455319	     26.13305512	     30.62623234	   2871.79045913	   -318.11959833	     14.02181758	    -22.76381045
     10.38000000	     31.22203472	     26.02697885	     35.21125133	    -91.38698509	    848.27037506	    -38.28331533	     12.52536503	     33.58177713	     26.75182115	     45.00000000	    -45.00000000	   1711.26908909	    433.10002920	     22.66056138	   -169.10549978	   2517.38407165	    152.65592977	     15.44542620	     14.78653501	     -5.80147220	    -45.00000000	    -40.16092333	     45.00000000	    -45.00000000	   4065.40975591	  -4601.37228422	     26.26829269	     30.94589417	   2871.77432811	   -317.97511679	     14.21117312	    -22.60079686
     10.39000000	     31.34207697	     25.97773326	     35.24992992	    -89.91199391	    847.83207181	    -38.35215792	     12.61855004	     33.72947329	     26.97758846	     45.00000000	    -45.00000000	   1711.32808559	    433.04825041	     22.66317943	   -169.37410458	   2517.21163106	    152.49796202	     15.45409335	     14.71579170	     -5.74475722	    -45.00000000	    -40.09118978	     45.00000000	    -45.00000000	   4065.19634225	  -4601.49532715	     26.21089039	     31.30639986	   2871.93259447	   -317.96631377	     14.11177972	    -22.55149294
     10.40000000	     31.27494756	     26.09997483	     35.45367320	    -88.37953972	    847.35992915	    -38.41611482	     12.53826528	     33.65687099	     26.91218406	     45.00000000	    -45.00000000	   1711.37088267	    433.02755766	     22.85308191	   -169.73610477	   2517.19961482	    152.36497746	     15.28631301	     14.93582511	     -5.88702542	    -45.00000000	    -40.13521961	     45.00000000	    -45.00000000	   4065.17517317	  -4601.57280264	     26.39831103	     31.64829840	   2871.90800792	   -317.83762406	     14.32113326	    -22.63652168
     10.41000000	     31.22902379	     26.21522642	     35.71421982	    -86.79665551	    846.85343484	    -38.47529647	     12.57791808	     33.67033857	     26.93641145	     45.00000000	    -45.00000000	   1711.50397524	    433.03803913	     22.88097868	   -170.13358376	   2517.15911125	    152.24368750	     15.15793433	     14.95909221	     -5.84281115	    -45.00000000	    -40.07380472	     45.00000000	    -45.00000000	   4064.96444031	  -4601.53545014	     26.37548869	     31.92571274	   2871.91969987	   -317.67764072	     14.32751042	    -22.53909604
     10.42000000	     31.20769683	     26.25452176	     35.95248987	    -85.15671423	    846.31056149	    -38.53100605	     12.48803490	     33.71105752	     27.11255980	     45.00000000	    -45.00000000	   1711.55187897	    432.98157182	     22.95680690	   -170.51712268	   2517.15910303	    152.14231639	     15.05252397	     15.03376136	     -5.88990794	    -45.00000000	    -40.10648514	     45.00000000	    -45.00000000	   4064.95715700	  -4601.62105051	     26.48028191	     32.34216642	   2871.92614843	   -317.52056055	     14.42292524	    -22.49899516
     10.43000000	     31.14228238	     26.35485295	     36.22422678	    -83.46834183	    845.73680989	    -38.58442828	     12.55248635	     33.72987682	     27.22519754	     45.00000000	    -45.00000000	   1711.64283469	    432.94000765	     22.98546453	   -170.80791576	   2517.14590864	    152.08646570	     14.91786642	     15.08808142	     -5.90541049	    -45.00000000	    -40.09028767	     45.00000000	    -45.00000000	   4064.79698104	  -4601.60585749	     26.51616529	     32.67974301	   2871.93450140	   -317.37517266	     14.47959029	    -22.39570854
     10.44000000	     31.07703165	     26.45030284	     36.46714898	    -81.71576332	    845.13123253	    -38.63696882	     12.51771327	     33.74086264	     27.27950253	     45.00000000	    -45.00000000	   1711.73282626	    432.89468107	     23.05084472	   -171.12783022	   2517.10387665	    152.04861265	     14.79289111	     15.16840623	     -5.88988502	    -45.00000000	    -40.13035346	     45.00000000	    -45.00000000	   4064.70210655	  -4601.65354609	     26.59731203	     33.02184079	   2871.92431453	   -317.23464375	     14.55110732	    -22.29515677
     10.45000000	     31.01882648	     26.55009031	     36.73479939	    -79.90409051	    844.49956203	    -38.68875419	     12.49998733	     33.76039152	     27.37783154	     45.00000000	    -45.00000000	   1711.82713824	    432.85782964	     23.09264152	   -171.47152486	   2517.09658176	    152.03239729	     14.66436341	     15.22884211	     -5.91357057	    -45.00000000	    -40.12398589	     45.00000000	    -45.00000000	   4064.56964876	  -4601.67566737	     26.63728429	     33.36472972	   2871.91232594	   -317.10061430	     14.61866562	    -22.19102474
